<svg xmlns="http://www.w3.org/2000/svg" xmlns:xlink="http://www.w3.org/1999/xlink" viewBox="0 0 210 297"><defs><linearGradient id="e"><stop offset="0" stop-color="#d6ae94"/><stop offset="1" stop-color="#d7b881"/></linearGradient><linearGradient id="d"><stop offset="0" stop-color="#ccae9b"/><stop offset="1" stop-color="#d7b881"/></linearGradient><linearGradient id="j"><stop offset="0" stop-color="#ccae9b"/><stop offset="1" stop-color="#daae91"/></linearGradient><linearGradient id="h"><stop offset="0" stop-color="#cbac99"/><stop offset=".45" stop-color="#baa99c"/><stop offset="1" stop-color="#d7a582"/></linearGradient><linearGradient id="f"><stop offset="0" stop-color="#d8b6a2"/><stop offset="1" stop-color="#d7b881"/></linearGradient><linearGradient id="g"><stop offset="0" stop-color="#bfa492"/><stop offset="1" stop-color="#d7b881"/></linearGradient><linearGradient id="a"><stop offset="0" stop-color="#deaa87"/><stop offset="1" stop-color="#caaf9e"/></linearGradient><linearGradient id="b"><stop offset="0" stop-color="#d8b6a2"/><stop offset="1" stop-color="#c1a593"/></linearGradient><linearGradient id="i"><stop offset=".002" stop-color="#c8beb7"/><stop offset="1" stop-color="#deaa87"/></linearGradient><linearGradient id="c"><stop offset="0" stop-color="#d8b6a2"/><stop offset="1" stop-color="#bca190"/></linearGradient><linearGradient xlink:href="#a" id="p" x1="59.957" x2="54.595" y1="103.984" y2="134.668" gradientTransform="matrix(2.16058 0 0 2.16058 -25.346 -11.484)" gradientUnits="userSpaceOnUse"/><linearGradient xlink:href="#b" id="l" x1="86.407" x2="85.132" y1="124.181" y2="96.201" gradientTransform="matrix(2.16058 0 0 2.16058 -54.405 -19.392)" gradientUnits="userSpaceOnUse"/><linearGradient xlink:href="#c" id="n" x1="70.637" x2="81.623" y1="108.566" y2="108.566" gradientTransform="matrix(2.16058 0 0 2.16058 -54.269 -19.528)" gradientUnits="userSpaceOnUse"/><linearGradient xlink:href="#d" id="q" x1="72.284" x2="70.6" y1="137.171" y2="141.795" gradientTransform="matrix(2.16058 0 0 2.16058 -54.405 -19.392)" gradientUnits="userSpaceOnUse"/><linearGradient xlink:href="#e" id="s" x1="60.229" x2="59.256" y1="134.133" y2="137.867" gradientTransform="matrix(2.16058 0 0 2.16058 -54.405 -19.392)" gradientUnits="userSpaceOnUse"/><linearGradient xlink:href="#f" id="m" x1="87.312" x2="85.983" y1="124.662" y2="129.642" gradientTransform="matrix(2.16058 0 0 2.16058 -54.405 -19.392)" gradientUnits="userSpaceOnUse"/><linearGradient xlink:href="#g" id="o" x1="78.2" x2="74.043" y1="124.4" y2="129.514" gradientTransform="matrix(2.16058 0 0 2.16058 -54.405 -19.392)" gradientUnits="userSpaceOnUse"/><linearGradient xlink:href="#h" id="k" x1="90.301" x2="98.637" y1="66.906" y2="9.64" gradientTransform="matrix(2.16058 0 0 2.16058 -54.405 -19.392)" gradientUnits="userSpaceOnUse"/><linearGradient xlink:href="#j" id="r" x1="55.933" x2="66.919" y1="118.823" y2="118.823" gradientTransform="matrix(2.16058 0 0 2.16058 -54.405 -19.392)" gradientUnits="userSpaceOnUse"/><radialGradient xlink:href="#i" id="t" cx="71.366" cy="84.57" r="23.705" fx="71.366" fy="84.57" gradientTransform="matrix(2.0283 1.18943 -1.16635 1.98894 53.674 -89.761)" gradientUnits="userSpaceOnUse"/></defs><path fill="url(#k)" d="M136.33 127.328s1.903-4.347-.27-10.868l3.531.543s-6.249-4.619-7.064-8.423l-.815-3.804s1.087 3.804 5.434 4.076c-2.989-6.793-6.793-17.389-7.064-32.604 3.26 5.977 4.619 15.758 3.26 5.977-1.358-9.781-1.358-14.944-1.358-14.944s-1.359-5.434-5.163-10.868c4.62 1.63 7.064 9.238 4.62 1.63-2.446-7.607-8.424-5.162-5.163-19.29 2.173 6.249 4.89 8.966 2.173 6.249.544-6.793 1.087-16.302 5.163-22.552 1.63 3.533 4.89.816 4.89.816s4.891-4.076 5.978-10.053c1.902 4.075 2.445 5.705 2.445 5.705s2.174-7.336 5.434-9.238c3.26-1.901 3.804-2.173 3.804-2.173s-3.532 6.792.544 10.868c2.717-6.793 1.358-13.585 1.358-13.585 4.347 5.434 16.03 13.042 13.857 34.506-1.902 21.465 2.989 14.944 2.989 14.944s1.358 13.041-4.62 24.996c4.62-3.532 5.706-4.075 5.706-4.075s-4.075 17.389-15.487 28.529c6.25-1.63 5.163-.815 5.163-.815s-1.902 8.15-12.227 16.845c-.272.815-.543-1.358-4.075 4.62-3.533 5.977-5.978 10.052-5.978 10.052s-2.717 8.151-4.89 17.39c-6.521-1.903-6.521-1.36-6.521-1.36s3.803-15.486 4.347-23.094z"/><path fill="url(#l)" d="M124.737 181.562s-3.803 39.669 0 72.545c13.042 4.619 19.155-.951 19.155-.951s7.472-62.628 5.299-82.19c-21.465-3.532-24.454 10.596-24.454 10.596z"/><path fill="url(#m)" d="M125.678 250.663c-.544 0-7.336 6.521-3.94 12.77 3.396 6.25 17.389 2.174 17.389 2.174s7.064-4.483 4.89-12.362a9282.339 9282.339 0 0 1-18.34-2.582z"/><path fill="#6c5d53" d="M125.16 257.86s-2.988 4.483.68 8.422c-1.087-3.396-1.766-4.89-.68-8.422zM130.354 258.283s-2.988 4.483.68 8.423c-1.087-3.396-1.767-4.89-.68-8.423z"/><path fill="url(#n)" d="M100.038 177.577s-3.804 39.668 0 72.544c13.042 4.62 19.02 1.087 19.02 1.087s4.618-50.265 2.445-69.827c-21.465-3.533-21.465-3.804-21.465-3.804z"/><path fill="url(#o)" d="M101.033 246.544c-.543 0-7.336 6.52-3.94 12.77 3.397 6.249 17.39 2.173 17.39 2.173s7.064-4.483 4.89-12.362a9273.205 9273.205 0 0 1-18.34-2.581z"/><path fill="#6c5d53" d="M103.131 252.754s-2.989 4.483.68 8.423c-1.088-3.397-1.767-4.891-.68-8.423zM108.325 253.177s-2.989 4.483.68 8.423c-1.088-3.396-1.767-4.89-.68-8.423z"/><path fill="url(#p)" d="M92.845 203.976s-3.804 39.669 0 72.545c13.041 4.619 19.019 1.087 19.019 1.087s4.619-50.265 2.445-69.828c-21.464-3.532-21.464-3.804-21.464-3.804z"/><path fill="url(#q)" d="M93.21 273.079c-.544 0-7.337 6.52-3.94 12.77 3.396 6.25 17.388 2.174 17.388 2.174s7.065-4.483 4.891-12.363a9267.906 9267.906 0 0 1-18.34-2.581z"/><path fill="#6c5d53" d="M93.098 280.61s-2.989 4.483.68 8.423c-1.087-3.396-1.767-4.89-.68-8.423zM98.292 281.034s-2.989 4.483.68 8.422c-1.088-3.396-1.767-4.89-.68-8.422z"/><path fill="url(#r)" d="M68.133 199.873s-3.803 39.668 0 72.544c13.042 4.62 19.02 1.087 19.02 1.087s4.619-50.265 2.445-69.828c-21.465-3.532-21.465-3.803-21.465-3.803z"/><path fill="url(#s)" d="M69.084 269.972c-.543 0-7.336 6.52-3.94 12.77 3.397 6.25 17.39 2.174 17.39 2.174s7.064-4.484 4.89-12.363a9270.393 9270.393 0 0 1-18.34-2.581z"/><path fill="#6c5d53" d="M70.171 277.444s-2.989 4.483.68 8.423c-1.087-3.397-1.767-4.891-.68-8.423zM75.365 277.867s-2.989 4.483.68 8.423c-1.088-3.396-1.767-4.89-.68-8.423z"/><ellipse cx="99.787" cy="163.328" fill="url(#t)" rx="51.216" ry="49.314"/><ellipse cx="80.036" cy="168.973" fill="#c0a498" rx="31.124" ry="28.434"/><path fill="#ebccba" d="m114.664 209.619 4.995-8.838s17.29-6.916 24.976-33.43c-2.874 12.5-11.644 42.268-29.971 42.268z"/><ellipse cx="77.032" cy="164.811" fill="#e4bda3" rx="35.797" ry="26.151"/><path fill="#deaa87" d="M76.674 138.25a33.392 20.558 0 0 0-33.393 20.558 33.392 20.558 0 0 0 33.393 20.559 33.392 20.558 0 0 0 33.391-20.559 33.392 20.558 0 0 0-33.391-20.558Z"/><path fill="#deaa87" d="M98.836 144.215s1.878-3.504 7.305-3.71c5.427-.207 2.922 11.955 2.922 11.955z"/><path fill="#c2a694" d="M107.161 150.569s-2.609-2.783-5.113-4.329c2.922-.618 4.174.412 4.174.412s1.148.722.94 3.917z"/><path fill="#deaa87" d="M55.098 144.898s-1.784-3.743-6.938-3.963c-5.154-.22-2.775 12.77-2.775 12.77z"/><path fill="#c2a694" d="M46.78 151.023s2.478-2.972 4.856-4.624c-2.775-.66-3.964.44-3.964.44s-1.09.771-.892 4.184z"/><path fill="#b4917b" d="m61.342 141.24 6.382 12.892.076-15.041zM72.081 138.662l1.977 21.673 5.1-21.946zM83.944 138.15l-3.21 16.021 10.14-14.536zM83.316 160.714s-1.56-10.515 10.057-14.912c-5.722 7.456-10.057 14.912-10.057 14.912zM63.956 159.044s2.728-7.81-3.982-12.902c2.435 6.554 3.982 12.902 3.982 12.902z"/><path fill="#ffe6d5" d="M45.638 178.155s5.683 5.643 12.658 7.12c4.262 1.21 5.037-3.09 5.037-3.09s0 2.284 4.262 2.15c4.262-.134 4.391-.672 4.391-.672s2.067 2.15 7.104 1.478c5.037-.672 2.97-1.478 2.97-1.478s3.875 6.717 13.562 3.225c9.687-3.493 12.916-9.539 12.916-9.539s-9.995 18.117-35.26 16.524c-21.31-1.343-27.64-15.718-27.64-15.718Z"/><g transform="matrix(2.16058 0 0 2.16058 -54.405 -19.392)"><ellipse cx="68.759" cy="89.017" fill="#fff" rx="3.852" ry="2.318" transform="rotate(5.997) skewX(-.097)"/><path fill="#6b5b51" d="m57.088 94.524 1.778-2.667 1.423 2.978z"/><ellipse cx="56.553" cy="92.501" fill="#f5d3ba" rx="2.31" ry="2.289"/><ellipse cx="61.627" cy="92.701" fill="#f5d3ba" rx="2.842" ry="2.445"/><path fill="#b18485" d="M57.844 90.39s1.24-.238 2.623.133c-.578 1.022-1.512 1.423-1.512 1.423s-.578-.312-1.111-1.557z"/></g><g transform="matrix(2.16058 0 0 2.16058 -55.653 -18.72)"><path fill="#6c5d53" d="M55.087 83.053c-.489-.089-3.2-.266-3.2-.266s.4.533.755 2.267c1.512.133 2.445-2 2.445-2z"/><ellipse cx="55.742" cy="85.943" fill="#6c5d53" rx="3.207" ry="2.997"/><path fill="#6c5d53" d="m58.778 86.477-.267 2.445s-.845-.311-2.89-.267c-2.045.045 3.157-2.178 3.157-2.178z"/><ellipse cx="55.552" cy="86.708" fill="#d7dda5" rx="2.609" ry="2.389" transform="translate(.578 -.311)"/><circle cx="55.857" cy="86.81" r="1.981" transform="translate(.578 -.311)"/><ellipse cx="56.338" cy="86.488" fill="#fff" rx=".566" ry=".597" transform="translate(.578 -.311)"/></g><g transform="matrix(2.16058 0 0 2.16058 -52.964 -18.431)"><ellipse cx="63.371" cy="86.395" fill="#6c5d53" rx="3.296" ry="2.908"/><path fill="#6c5d53" d="M64.424 83.72s2.268.178 3.112-.178l-1.289 2.49zM60.111 86.61l-.222 2.179s.267-.134 3.424.4c-1.245-2.846-3.202-2.579-3.202-2.579z"/><ellipse cx="63.061" cy="86.61" fill="#d7dda5" rx="2.609" ry="2.389"/><ellipse cx="62.902" cy="86.766" rx="2.138" ry="2.075"/><ellipse cx="63.531" cy="86.421" fill="#fff" rx=".629" ry=".597"/></g><path fill="#fff" d="M72.345 180.853a3.6 3.396 0 0 1-3.503 3.395 3.6 3.396 0 0 1-3.692-3.212 3.6 3.396 0 0 1 3.304-3.568 3.6 3.396 0 0 1 3.87 3.02M80.416 181.465a3.6 3.464 0 0 1-3.502 3.463 3.6 3.464 0 0 1-3.692-3.277 3.6 3.464 0 0 1 3.303-3.64 3.6 3.464 0 0 1 3.87 3.08"/><circle cx="56.841" cy="172.661" r=".017" fill="#6b5b51" stroke="#000" stroke-width=".265"/><g fill="#fff"><path d="M68.033 180.836s-15.059-5.408-26.408-.63c12.198-4.526 26.283 1.133 26.283 1.133zM69.382 182.523s-15.856-2.144-25.957 4.898c10.984-6.974 25.94-4.38 25.94-4.38z"/><path d="M65.725 181.193s-15.856-2.144-25.958 4.899c10.984-6.974 25.94-4.38 25.94-4.38z"/><path d="M68.683 182.05s-15.045-5.448-26.407-.7c12.21-4.494 26.28 1.203 26.28 1.203z"/><path d="M69.193 178.91s-15.856-2.145-25.958 4.898c10.984-6.974 25.94-4.38 25.94-4.38z"/></g><g fill="#fff"><path d="M78.74 181.386s18.145-2.688 30.19 4.6c-13.058-7.192-30.14-4.046-30.14-4.046zM76.893 182.892s18.452.903 28.66 10.323c-11.226-9.523-28.735-9.774-28.735-9.774z"/><path d="M81.303 182.222s18.452.903 28.66 10.323c-11.226-9.523-28.735-9.774-28.735-9.774z"/><path d="M77.777 182.534s18.136-2.733 30.202 4.524c-13.08-7.16-30.15-3.97-30.15-3.97z"/><path d="M77.774 179.13s18.452.903 28.66 10.322c-11.226-9.523-28.735-9.774-28.735-9.774z"/></g></svg>